<?xml version="1.0" encoding="UTF-8"?>
<svg id="Ebene_1" data-name="Ebene 1" xmlns="http://www.w3.org/2000/svg" viewBox="0 0 688.76 203.79">
  <g>
    <path d="M239.37,72.89c8.49,0,14.84,2.19,19.04,6.58,4.2,4.39,6.3,11.39,6.3,21v48.86h-12.18v-48.3c0-11.85-5.09-17.78-15.26-17.78-7.28,0-12.48,2.1-15.61,6.3-3.13,4.2-4.69,10.31-4.69,18.34v41.44h-12.18v-48.3c0-11.85-5.13-17.78-15.4-17.78-7.56,0-12.79,2.33-15.68,7-2.89,4.67-4.34,11.39-4.34,20.16v38.92h-12.32V74.29h9.94l1.82,10.22h.7c2.33-3.92,5.48-6.84,9.45-8.75,3.97-1.91,8.19-2.87,12.67-2.87,11.76,0,19.41,4.2,22.96,12.6h.7c2.52-4.29,5.93-7.47,10.22-9.52,4.29-2.05,8.91-3.08,13.86-3.08Z" fill="#fff"/>
    <path d="M350.67,74.29v75.04h-10.08l-1.82-9.94h-.56c-2.43,3.92-5.79,6.79-10.08,8.61-4.29,1.82-8.87,2.73-13.72,2.73-9.05,0-15.87-2.17-20.44-6.51-4.57-4.34-6.86-11.27-6.86-20.79v-49.14h12.46v48.3c0,11.95,5.55,17.92,16.66,17.92,8.31,0,14.07-2.33,17.29-7,3.22-4.67,4.83-11.39,4.83-20.16v-39.06h12.32Z" fill="#fff"/>
    <path d="M388.47,150.73c-5.04,0-9.29-1.21-12.74-3.64-3.45-2.43-5.18-6.67-5.18-12.74,0-2.99,.42-6.3,1.26-9.94l8.54-40.74h-11.62l1.12-5.6,12.6-5.32,8.68-15.54h7.28l-3.78,17.08h18.9l-1.96,9.38h-18.76l-8.68,40.88c-.28,1.21-.56,2.59-.84,4.13-.28,1.54-.42,2.96-.42,4.27,0,2.15,.58,3.97,1.75,5.46,1.17,1.49,3.06,2.24,5.67,2.24,1.68,0,3.31-.16,4.9-.49,1.59-.33,3.27-.77,5.04-1.33v9.38c-1.12,.56-2.85,1.12-5.18,1.68-2.33,.56-4.53,.84-6.58,.84Z" fill="#00a99d"/>
    <path d="M449.37,73.03c9.15,0,15.91,2.01,20.3,6.02,4.39,4.01,6.58,10.41,6.58,19.18v51.1h-8.96l-2.38-10.64h-.56c-3.27,4.11-6.72,7.14-10.36,9.1-3.64,1.96-8.59,2.94-14.84,2.94-6.81,0-12.46-1.8-16.94-5.39-4.48-3.59-6.72-9.21-6.72-16.87s2.94-13.23,8.82-17.29c5.88-4.06,14.93-6.28,27.16-6.65l12.74-.42v-4.48c0-6.25-1.35-10.59-4.06-13.02-2.71-2.43-6.53-3.64-11.48-3.64-3.92,0-7.65,.58-11.2,1.75-3.55,1.17-6.86,2.5-9.94,3.99l-3.78-9.24c3.27-1.77,7.14-3.29,11.62-4.55,4.48-1.26,9.15-1.89,14-1.89Zm14.7,39.62l-11.06,.42c-9.33,.38-15.8,1.87-19.39,4.48-3.59,2.61-5.39,6.3-5.39,11.06,0,4.2,1.28,7.28,3.85,9.24,2.57,1.96,5.86,2.94,9.87,2.94,6.25,0,11.5-1.75,15.75-5.25,4.25-3.5,6.37-8.89,6.37-16.17v-6.72Z" fill="#fff"/>
    <path d="M511.8,42.93v25.9c0,3.17-.07,6.14-.21,8.89-.14,2.75-.3,4.92-.49,6.51h.7c2.15-3.17,5.09-5.83,8.82-7.98,3.73-2.15,8.54-3.22,14.42-3.22,9.33,0,16.82,3.24,22.47,9.73,5.65,6.49,8.47,16.17,8.47,29.05s-2.85,22.59-8.54,29.12c-5.69,6.53-13.16,9.8-22.4,9.8-5.88,0-10.69-1.07-14.42-3.22-3.73-2.15-6.67-4.71-8.82-7.7h-.98l-2.52,9.52h-8.82V42.93h12.32Zm21.14,40.32c-8.03,0-13.56,2.29-16.59,6.86-3.03,4.57-4.55,11.67-4.55,21.28v.56c0,9.24,1.52,16.31,4.55,21.21,3.03,4.9,8.66,7.35,16.87,7.35,6.72,0,11.74-2.47,15.05-7.42,3.31-4.95,4.97-12.09,4.97-21.42,0-18.95-6.77-28.42-20.3-28.42Z" fill="#fff"/>
    <path d="M597.9,149.33h-12.32V42.93h12.32v106.4Z" fill="#fff"/>
    <path d="M650.68,72.89c6.35,0,11.85,1.4,16.52,4.2,4.67,2.8,8.24,6.74,10.71,11.83,2.47,5.09,3.71,11.04,3.71,17.85v7.42h-51.38c.19,8.49,2.36,14.96,6.51,19.39,4.15,4.43,9.96,6.65,17.43,6.65,4.76,0,8.98-.44,12.67-1.33,3.69-.89,7.49-2.17,11.41-3.85v10.78c-3.83,1.68-7.61,2.92-11.34,3.71-3.73,.79-8.17,1.19-13.3,1.19-7.19,0-13.49-1.45-18.9-4.34-5.41-2.89-9.64-7.19-12.67-12.88-3.03-5.69-4.55-12.74-4.55-21.14s1.38-15.26,4.13-21.14c2.75-5.88,6.63-10.41,11.62-13.58,4.99-3.17,10.8-4.76,17.43-4.76Zm-.14,10.08c-5.88,0-10.52,1.89-13.93,5.67-3.41,3.78-5.44,9.03-6.09,15.75h38.22c-.09-6.35-1.59-11.5-4.48-15.47-2.89-3.96-7.47-5.95-13.72-5.95Z" fill="#fff"/>
  </g>
  <g id="symbol">
    <path d="M-.02,60.88c0-3.34,1.66-6.5,4.33-7.95l27.35-15.54c1.12-.67,2.24-.97,3.47-.97s2.4,.3,3.53,.97l27.35,15.54c.16,.06,.32,.18,.43,.3,.11-.12,.27-.24,.43-.3l27.35-15.54c1.12-.67,2.24-.97,3.47-.97s2.35,.3,3.47,.97l27.35,15.54c2.67,1.46,4.33,4.61,4.33,7.95v28.83c0,3.52-1.87,6.74-4.75,8.19l-26.5,12.93v27.74c0,3.52-1.87,6.74-4.75,8.19l-27.35,13.29c-.96,.49-2.03,.67-3.04,.67s-2.14-.18-3.1-.67l-27.35-13.29c-2.88-1.46-4.75-4.67-4.75-8.19v-27.74l-26.5-12.93C1.8,96.45-.02,93.23-.02,89.71v-28.83Zm7.8,0v21.79l23.45-11.41v-23.73L7.78,60.88Zm2.72,30.17l24.63,12.02,24.68-12.02-24.68-12.02-24.63,12.02Zm28.58,19.79v18.45l23.4-11.41v-18.51l-23.4,11.47Zm.43,27.92l26.92,13.11,26.92-13.11-26.92-13.11-26.92,13.11Zm30.82-77.88v21.79l23.45-11.41v-23.73l-23.45,13.35Zm2.67,30.17l24.68,12.02,24.63-12.02-24.63-12.02-24.68,12.02Z" fill="#fff"/>
  </g>
</svg>